# xmcd
# 
# Track frame offsets:
#     150
#     16148
#     29840
#     43586
#     60876
#     82820
#     98141
#     108898
#     121629
#     137344
#     153310
# 
# Disc length: 2218
# 
# Revision: 1
# Processed by: cddbd v1.5.2PL0 Copyright (c) Steve Scherf et al.
# Submitted via: fre:ac v1.0.27
# 
DISCID=7308a80b
DTITLE=Johnny Dowd - Cemetery Shoes
DYEAR=2004
DGENRE=AltCountry
TTITLE0=Brother Jim
TTITLE1=Garden of Delight
TTITLE2=Whisper in a Nag's Ear
TTITLE3=Rest in Peace
TTITLE4=Wedding Dress
TTITLE5=Shipwreck
TTITLE6=Dear John Letter
TTITLE7=Easter Sunday
TTITLE8=Christmas is Just Another Day
TTITLE9=Dylan's Coat
TTITLE10=Rip Off
EXTD=(c) 2004 munich records.  buying the real stuff is always better ! think about it !
EXTT0=
EXTT1=
EXTT2=
EXTT3=
EXTT4=
EXTT5=
EXTT6=
EXTT7=
EXTT8=
EXTT9=
EXTT10=
PLAYORDER=
